<?xml version="1.0" encoding="utf-8"?>
<svg version="1.1" id="Layer_1" xmlns="http://www.w3.org/2000/svg" xmlns:xlink="http://www.w3.org/1999/xlink" x="0px" y="0px"
	 viewBox="0 0 550 400" style="enable-background:new 0 0 550 400;" xml:space="preserve">
<style type="text/css">
	.st0{fill:#FFFFFF;}
</style>
<g>
	<polygon class="st0" points="791.9,266 791.9,266 791.9,266 	"/>
	<polygon class="st0" points="779.2,367.1 779.2,367.1 779.2,367.1 	"/>
	<polygon class="st0" points="743,298.7 743,298.8 743.1,298.8 743.1,298.7 	"/>
	<path class="st0" d="M229.7,217.6L229.7,217.6L229.7,217.6l-5.1,150.9l0,0l0,0l2.9,2.7c3.5-3.9,7.6-11.4,12.4-22.5l0.6-7.4
		c3.6-3.2,8.3-4.6,14.3-4.1h40.4c6-0.5,10.8,0.9,14.4,4.1l0-0.2c0,0,0,0,0,0l0,0.1l0-0.1c0,0,0,0,0,0l0,0l0.6,7.3
		c4.8,11.2,9,18.7,12.4,22.5l2.9-2.6l0,0l0,0l-5.1-150.9h0l0,0l0,0l0,0h0l0,0l5.5-0.4l0,0l4.2,2.9l2.8,0.8v0h0l0,0v0l32.9,9.2l0,0
		l5.8,1.6l0,0l0,0l3.4-15.8l-6.8-5.9h0h7.8l0,0h36h3v0v-27l-2.7-0.8l-11.6-3.5v-22.4h1.1v0v-6.6v0h-1.1h0v0h0v0h0l-0.1-3.9h0h-8.6h0
		v3.9h-1v0h0v6.7l0.6,0.1v19.5l-8.3-2.5l-58.5-28.5l0,0l0,0l2.1-5.5l5.5-14.1v-19.1l-25.5-11.9l0,0l0,0l0.1,0l-0.5-2.6h0h-0.8
		l-0.3-3.2h0h-3h0l-1.2,2l-3.5-19.1c-1.5-8.7-4-14.7-7.3-18l0-0.1l0,0l0,0c-1.9-16.1-3.3-24.2-4.3-24.3l-0.1,0c0,0,0,0,0,0l-15.8,0
		l-0.7,0v0h-5.1c-1,0.1-2.5,8.2-4.3,24.3c-3.4,3.3-5.9,9.3-7.4,18.1L249,90.4l-1.2-2h0h-3h0l-0.3,3.2h-0.8h0l-0.5,2.6l0,0l0,0l0,0
		l-25.4,11.9v19.1l7.6,19.5l-58.5,28.5l0,0l0,0l-8.3,2.5v-19.5l0.5-0.1v-0.1l0.1,0v-6.7h-1.1v-3.9h-8.6l-0.2,3.9h-1.1v0.1h0v6.6h1.1
		v22.4l-11.5,3.4l-2.7,0.8v0.1v27v0.1h3H174l0,0h7.8l-6.8,5.9l0,0l0,0l3.4,15.8l5.8-1.6l0-0.1l0,0l0,0l32.9-9.2v0l2.8-0.8l4.2-2.9
		l0-0.1l0,0l0,0L229.7,217.6L229.7,217.6L229.7,217.6 M295.9,254.2L295.9,254.2l5.7-8.9l0,0.1l6,73.3l0,0l0,0l0.6,6.9l0,0l-0.6-6.9
		l-13.1,1.9h-39.2l-13.1-1.9l0,0l6-73.4l5.7,8.9l0,0v22.9h0h1.8l0,0.1v29.1h8.1l1.8-2.2l1.9,3v0h0h0h2.7h0h8.6h0h0h2.9h0.1l1.9-3
		l1.8,2.2h0h8.1h0v-29.1h1.8L295.9,254.2 M153.2,177.5l0.5-0.2L153.2,177.5L153.2,177.5z M157,176.4L157,176.4l0.6-0.2l0.9-0.3
		L157,176.4z M396.9,177.5L396.9,177.5L396.9,177.5L396.9,177.5L396.9,177.5z"/>
</g>
</svg>
